<svg viewBox="0 0 20 17" fill="none" xmlns="http://www.w3.org/2000/svg">
<path d="M7.74998 2.59999C6.19847 2.59999 4.7105 3.21633 3.61341 4.31341C2.51632 5.4105 1.89998 6.89847 1.89998 8.44999C1.89998 10.0015 2.51632 11.4895 3.61341 12.5866C4.7105 13.6836 6.19847 14.3 7.74998 14.3H14.05C14.618 14.2994 15.1796 14.1794 15.6983 13.9477C16.2169 13.7159 16.681 13.3777 17.0604 12.9549C17.4398 12.5321 17.726 12.0342 17.9004 11.4936C18.0749 10.953 18.1336 10.3817 18.0729 9.8169C18.0121 9.2521 17.8332 8.70639 17.5478 8.21523C17.2624 7.72407 16.8769 7.29844 16.4163 6.96599C15.9557 6.63354 15.4303 6.40171 14.8742 6.28556C14.3181 6.1694 13.7439 6.17153 13.1887 6.29179C12.7561 5.20255 12.0064 4.26831 11.0367 3.61008C10.067 2.95185 8.92198 2.59996 7.74998 2.59999ZM14.05 16.1H7.74998C6.41819 16.0997 5.10956 15.7517 3.95352 15.0904C2.79749 14.4292 1.8341 13.4776 1.15867 12.3298C0.483228 11.182 0.119138 9.87776 0.10241 8.54607C0.0856826 7.21439 0.416897 5.90141 1.06329 4.737C1.70968 3.5726 2.64886 2.59712 3.78792 1.90704C4.92698 1.21697 6.22646 0.836218 7.55783 0.802448C8.88919 0.768678 10.2063 1.08306 11.3789 1.7145C12.5515 2.34594 13.5389 3.27255 14.2435 4.40269C15.7804 4.4492 17.2372 5.09894 18.2988 6.21134C19.3603 7.32374 19.9412 8.80936 19.9157 10.3468C19.8903 11.8842 19.2606 13.3498 18.1629 14.4265C17.0651 15.5031 15.5876 16.1043 14.05 16.1Z" fill="#717784"/>
</svg>
