<svg viewBox="0 0 18 20" fill="none" xmlns="http://www.w3.org/2000/svg">
<path d="M9.00003 2.98999L4.54503 7.44499C3.66402 8.32609 3.06407 9.44864 2.82103 10.6707C2.578 11.8928 2.7028 13.1595 3.17965 14.3106C3.6565 15.4617 4.46399 16.4456 5.5 17.1378C6.53602 17.8301 7.75403 18.1995 9.00003 18.1995C10.246 18.1995 11.464 17.8301 12.5001 17.1378C13.5361 16.4456 14.3436 15.4617 14.8204 14.3106C15.2973 13.1595 15.4221 11.8928 15.179 10.6707C14.936 9.44864 14.336 8.32609 13.455 7.44499L9.00003 2.98999ZM9.00003 0.444794L14.7276 6.17239C15.8604 7.3052 16.6319 8.74848 16.9444 10.3197C17.2569 11.891 17.0965 13.5196 16.4834 14.9997C15.8704 16.4798 14.8322 17.7448 13.5001 18.6348C12.1681 19.5249 10.6021 19.9999 9.00003 19.9999C7.398 19.9999 5.83196 19.5249 4.49992 18.6348C3.16788 17.7448 2.12969 16.4798 1.51661 14.9997C0.903541 13.5196 0.743128 11.891 1.05566 10.3197C1.36819 8.74848 2.13963 7.3052 3.27243 6.17239L9.00003 0.444794Z" fill="#335CFF"/>
</svg>
