<svg viewBox="0 0 16 16" fill="none" xmlns="http://www.w3.org/2000/svg">
<path d="M3.00041 2.40874C3.77046 1.71895 4.67493 1.19599 5.65692 0.872742C5.9377 1.22451 6.29416 1.50846 6.6998 1.70349C7.10544 1.89852 7.54983 1.99961 7.99992 1.99924C8.45 1.99961 8.89439 1.89852 9.30003 1.70349C9.70567 1.50846 10.0621 1.22451 10.3429 0.872742C11.3249 1.19599 12.2294 1.71895 12.9994 2.40874C12.8355 2.82758 12.7681 3.27794 12.8021 3.72641C12.8362 4.17487 12.9707 4.60992 13.1959 4.99924C13.4206 5.38931 13.7304 5.7237 14.1021 5.97756C14.4739 6.23141 14.8981 6.39819 15.3432 6.46549C15.5536 7.47717 15.5536 8.52132 15.3432 9.53299C14.4732 9.66649 13.6707 10.178 13.1959 10.9992C12.9706 11.3887 12.836 11.8238 12.802 12.2724C12.7679 12.721 12.8354 13.1716 12.9994 13.5905C12.2293 14.28 11.3248 14.8027 10.3429 15.1257C10.0621 14.7741 9.70556 14.4903 9.29992 14.2954C8.89429 14.1005 8.44994 13.9995 7.99992 14C7.54983 13.9996 7.10544 14.1007 6.6998 14.2957C6.29416 14.4908 5.9377 14.7747 5.65692 15.1265C4.67499 14.8035 3.77053 14.2808 3.00041 13.5912C3.1644 13.1723 3.23189 12.7218 3.19788 12.2732C3.16386 11.8246 3.0292 11.3894 2.80391 11C2.57913 10.6101 2.26935 10.2758 1.8976 10.0221C1.52585 9.76838 1.1017 9.60171 0.656665 9.53449C0.446151 8.52257 0.446151 7.47816 0.656665 6.46624C1.10176 6.39894 1.52596 6.23216 1.89772 5.97831C2.26947 5.72445 2.57922 5.39006 2.80391 4.99999C3.02909 4.61067 3.16368 4.17562 3.1977 3.72716C3.23171 3.2787 3.16428 2.82833 3.00041 2.40949V2.40874ZM9.12492 9.94774C9.38287 9.80108 9.60926 9.60485 9.79107 9.37033C9.97287 9.13582 10.1065 8.86766 10.1842 8.5813C10.262 8.29494 10.2823 7.99602 10.2441 7.70177C10.2058 7.40751 10.1098 7.12373 9.96138 6.86675C9.81301 6.60978 9.61528 6.38469 9.37957 6.20445C9.14386 6.0242 8.87482 5.89236 8.58794 5.81652C8.30107 5.74067 8.00203 5.72232 7.70803 5.76252C7.41404 5.80272 7.1309 5.90067 6.87492 6.05074C6.36235 6.35123 5.98945 6.84226 5.83758 7.41668C5.68571 7.99109 5.76721 8.60226 6.0643 9.1168C6.36138 9.63135 6.84993 10.0075 7.42332 10.1632C7.99672 10.3188 8.60841 10.2414 9.12492 9.94774Z" fill="currentColor"/>
</svg>
