<svg version="1.1" viewBox="0 0 24 24" fill="currentColor">
    <defs id="defs2">
        <rect height="7.0346723" width="7.9207187" x="-1.1008456" y="289.81766"/></defs>
        <g id="g2969" style="display:inline;stroke-width:0.702087" transform="matrix(1.4243245,0,0,1.4243253,-5.0918956,-5.0919012)">
        <path d="m 92,-38.548828 c -5.819996,0 -10.548828,4.728979 -10.548828,10.548828 0,5.819849 4.728832,10.548828 10.548828,10.548828 5.819996,0 10.54883,-4.728979 10.54883,-10.548828 0,-5.819849 -4.728834,-10.548828 -10.54883,-10.548828 z m -1.488281,1.128906 c -0.928969,0.775097 -2.17901,2.090564 -3.097657,3.990234 -0.856639,-0.365021 -1.590312,-0.80325 -2.208984,-1.263671 1.401516,-1.41805 3.242011,-2.403481 5.306641,-2.726563 z m 2.976562,0 c 2.06463,0.323082 3.905125,1.308513 5.306641,2.726563 -0.618672,0.460421 -1.352344,0.89865 -2.208984,1.263671 -0.918647,-1.89967 -2.168688,-3.215137 -3.097657,-3.990234 z M 91.5,-36.925781 v 4.378906 c -1.200272,-0.04612 -2.265227,-0.247397 -3.201172,-0.552734 1.010118,-2.110045 2.438502,-3.298861 3.201172,-3.826172 z m 1,0 c 0.76267,0.527311 2.191054,1.716127 3.201172,3.826172 -0.935945,0.305337 -2.000902,0.506617 -3.201172,0.552734 z m -7.957031,2.980469 c 0.685755,0.516998 1.505968,1.013057 2.464843,1.423828 -0.437859,1.148331 -0.736062,2.484519 -0.791015,4.021484 h -3.650391 -0.08984 c 0.106465,-2.058759 0.860002,-3.937901 2.066407,-5.445312 z m 14.914062,0 c 1.206409,1.507411 1.959939,3.386553 2.066409,5.445312 h -0.0898 -3.650387 c -0.05495,-1.536965 -0.353156,-2.873153 -0.791015,-4.021484 0.958875,-0.410771 1.779087,-0.90683 2.464843,-1.423828 z m -11.548828,1.765624 c 1.051587,0.352953 2.247027,0.58606 3.591797,0.634766 V -28.5 h -4.277344 c 0.05165,-1.415454 0.305432,-2.642324 0.685547,-3.679688 z m 8.183594,0 c 0.380115,1.037364 0.633895,2.264234 0.685547,3.679688 H 92.5 v -3.044922 c 1.344768,-0.04871 2.540209,-0.281813 3.591797,-0.634766 z M 82.476562,-27.5 h 0.08984 3.650391 c 0.05495,1.536966 0.353156,2.873153 0.791015,4.021484 -0.958875,0.410771 -1.779088,0.90683 -2.464843,1.423828 C 83.33656,-23.562099 82.583023,-25.441241 82.476558,-27.5 Z m 4.746094,0 H 91.5 v 3.044922 c -1.34477,0.04871 -2.54021,0.281813 -3.591797,0.634766 -0.380115,-1.037364 -0.633895,-2.264232 -0.685547,-3.679688 z m 5.277344,0 h 4.277344 c -0.05165,1.415456 -0.305432,2.642324 -0.685547,3.679688 -1.051588,-0.352953 -2.247028,-0.58606 -3.591797,-0.634766 z m 5.283203,0 h 3.650387 0.0898 c -0.10647,2.058759 -0.86,3.937901 -2.066409,5.445312 -0.685756,-0.516998 -1.505968,-1.013057 -2.464843,-1.423828 0.437859,-1.148331 0.736062,-2.484518 0.791015,-4.021484 z M 91.5,-23.453125 v 4.378906 c -0.76267,-0.52731 -2.191054,-1.716127 -3.201172,-3.826172 0.935945,-0.305337 2.0009,-0.506617 3.201172,-0.552734 z m 1,0 c 1.20027,0.04612 2.265227,0.247397 3.201172,0.552734 -1.010118,2.110045 -2.438502,3.298862 -3.201172,3.826172 z m -5.085938,0.882813 c 0.918647,1.89967 2.168688,3.215139 3.097657,3.990234 -2.06463,-0.323082 -3.905125,-1.308513 -5.306641,-2.726563 0.618672,-0.460421 1.352345,-0.89865 2.208984,-1.263671 z m 9.171876,0 c 0.85664,0.365021 1.590311,0.80325 2.208984,1.263671 -1.401517,1.41805 -3.242011,2.403481 -5.306641,2.726563 0.928969,-0.775095 2.17901,-2.090564 3.097657,-3.990234 z" transform="matrix(0.7020872,0,0,0.70208681,-52.592022,31.658429)"/></g></svg>